<svg width="14" height="16" viewBox="0 0 14 16" xmlns="http://www.w3.org/2000/svg">
<path d="M13.5211 5.22672C12.7173 1.61482 9.59471 0 6.85862 0C6.85862 0 6.85862 0 6.85089 0C4.12251 0 1.0077 1.61482 0.196143 5.21892C-0.715886 9.24427 1.7265 12.6533 3.93701 14.8064C4.75629 15.6021 5.80747 16 6.85862 16C7.90978 16 8.96093 15.6021 9.77248 14.8064C11.983 12.6533 14.4254 9.25207 13.5211 5.22672ZM9.39376 5.87421L6.30213 8.99464C6.18619 9.11165 6.03934 9.16626 5.89249 9.16626C5.74564 9.16626 5.59878 9.11165 5.48285 8.99464L4.32346 7.82448C4.09932 7.59824 4.09932 7.22379 4.32346 6.99756C4.54761 6.77133 4.9186 6.77133 5.14275 6.99756L5.89249 7.75427L8.57447 5.04729C8.79862 4.82106 9.16961 4.82106 9.39376 5.04729C9.6179 5.27353 9.6179 5.64798 9.39376 5.87421Z"/></svg>