<svg width="1550" height="600" fill="none" xmlns="http://www.w3.org/2000/svg"><mask id="a" style="mask-type:alpha" maskUnits="userSpaceOnUse" x="0" y="0" width="1550" height="600"><path transform="matrix(-1 0 0 1 1550 0)" fill="#08183E" d="M0 0h1550v600H0z"/></mask><g mask="url(#a)"><g filter="url(#b)"><ellipse cx="1169.5" cy="116" rx="636.5" ry="637" fill="#12234B"/><path d="M1169.5-518c349.87 0 633.5 283.849 633.5 634s-283.63 634-633.5 634S536 466.151 536 116s283.63-634 633.5-634Z" stroke="#638FF6" stroke-width="6"/></g><path d="M1169.5-520.5c351.25 0 636 284.97 636 636.5s-284.75 636.5-636 636.5c-351.253 0-636-284.97-636-636.5s284.747-636.5 636-636.5Z" fill="url(#c)" stroke="#26417F"/><g filter="url(#d)"><ellipse cx="1588.5" cy="116" rx="636.5" ry="637" fill="#12234B"/><path d="M1588.5-518c349.87 0 633.5 283.849 633.5 634s-283.63 634-633.5 634S955 466.151 955 116s283.63-634 633.5-634Z" stroke="#638FF6" stroke-width="6"/></g><path d="M1588.5-520.5c351.25 0 636 284.97 636 636.5s-284.75 636.5-636 636.5-636-284.97-636-636.5 284.75-636.5 636-636.5Z" fill="#162A58" stroke="#2B4FA3"/></g><defs><filter id="b" x="503" y="-551" width="1333" height="1334" filterUnits="userSpaceOnUse" color-interpolation-filters="sRGB"><feFlood flood-opacity="0" result="BackgroundImageFix"/><feBlend in="SourceGraphic" in2="BackgroundImageFix" result="shape"/><feGaussianBlur stdDeviation="15" result="effect1_foregroundBlur_5777_52744"/></filter><filter id="d" x="922" y="-551" width="1333" height="1334" filterUnits="userSpaceOnUse" color-interpolation-filters="sRGB"><feFlood flood-opacity="0" result="BackgroundImageFix"/><feBlend in="SourceGraphic" in2="BackgroundImageFix" result="shape"/><feGaussianBlur stdDeviation="15" result="effect1_foregroundBlur_5777_52744"/></filter><radialGradient id="c" cx="0" cy="0" r="1" gradientUnits="userSpaceOnUse" gradientTransform="rotate(144.51 566.19 245.124) scale(626.982 626.49)"><stop stop-color="#12234B"/><stop offset="1" stop-color="#142857"/></radialGradient></defs></svg>