<svg width="395" height="394" fill="none" xmlns="http://www.w3.org/2000/svg"><g clip-path="url(#a)" fill="#313131" fill-opacity=".04"><path d="M118.294 42.287c-14.313 7.174-19.083 26.304-9.542 35.87 11.927-21.522 31.01-14.348 59.635 9.564 19.083 16.739 45.323 2.392 45.323 2.392s4.771 28.695 40.551 33.478c40.552 4.782 54.865-19.131 54.865-19.131s9.541 23.913 45.322 9.565c26.24-9.565 16.698-26.304 16.698-26.304S395 87.721 395 70.982c0-21.521-26.239-19.13-26.239-19.13s4.77-23.913-21.469-26.304c-23.854-2.391-31.01 11.956-31.01 11.956S309.126 11.2 273.345 11.2c-33.396 0-45.323 31.087-45.323 31.087s-9.541-14.348-38.166-14.348c-21.469 0-31.01 16.74-31.01 16.74s-26.24-11.957-40.552-2.392Z"/><path d="M299.796 300.172v-50.003l-95.204 50.003v-50.003H147.47L133.189 83.494H85.588L71.306 250.17H14.185v142.865H395V250.169l-95.204 50.003Zm-142.806 45.24H61.786v-47.621h95.204v47.621Z"/></g><defs><clipPath id="a"><path fill="#fff" d="M0 0h395v394H0z"/></clipPath></defs></svg>