<svg width="526" height="526" fill="none" xmlns="http://www.w3.org/2000/svg"><path d="M263 0c145.251 0 263 117.749 263 263S408.251 526 263 526 0 408.251 0 263 117.749 0 263 0Zm-38.878 221.835 130.356-50.313-139.504 260.713 75.469-11.435-94.212 48.987c21.039 6.787 43.472 10.474 66.769 10.474 119.99 0 217.261-97.271 217.261-217.261 0-107.537-78.132-196.813-180.723-214.188l-75.416 173.023ZM263 45.739C143.01 45.74 45.74 143.01 45.74 263c0 88.18 52.533 164.088 128.011 198.137L162.374 368.2l29.73 59.461 82.331-185.244-128.07 43.453L289.063 47.29A219.45 219.45 0 0 0 263 45.74Z" fill="#313131" fill-opacity=".04"/></svg>