<svg width="390" height="390" fill="none" xmlns="http://www.w3.org/2000/svg"><path d="M276.25 227.5h-32.5v-16.25c0-4.31-1.712-8.443-4.76-11.49a16.246 16.246 0 0 0-22.98 0 16.246 16.246 0 0 0-4.76 11.49v16.25h-32.5v-16.25c0-4.31-1.712-8.443-4.76-11.49a16.246 16.246 0 0 0-22.98 0 16.246 16.246 0 0 0-4.76 11.49v16.25h-32.5a32.5 32.5 0 0 0-32.5 32.5v81.25A16.248 16.248 0 0 0 97.5 357.5h195a16.25 16.25 0 0 0 16.25-16.25V260a32.5 32.5 0 0 0-32.5-32.5Z" fill="#EEE"/><path d="M243.75 113.75a46.63 46.63 0 0 1-13.61 35.14A46.63 46.63 0 0 1 195 162.5a47.117 47.117 0 0 1-34.976-13.774 47.134 47.134 0 0 1-10.526-16.055 47.137 47.137 0 0 1-3.248-18.921 59.637 59.637 0 0 1 7.962-29.088A66.295 66.295 0 0 0 162.5 48.75a16.249 16.249 0 0 1 23.562-14.463 93.92 93.92 0 0 1 57.688 79.463Zm97.5 227.5c0-4.31-1.712-8.443-4.759-11.491A16.253 16.253 0 0 0 325 325H65a16.252 16.252 0 0 0-16.25 16.25A16.25 16.25 0 0 0 65 357.5h260a16.25 16.25 0 0 0 16.25-16.25Z" fill="#EEE"/></svg>