<svg width="84" height="29" fill="none" xmlns="http://www.w3.org/2000/svg"><path d="M29.157 4.515H19.031L7.711 24.5h50.548L55.71 29H0L16.427 0h15.17l-2.44 4.515ZM59.408 22.42h-5.207L64.35 4.5h-4.963l-10.13 17.885h-5.095L56.805.037h15.283L59.408 22.42ZM51.894.038 39.257 22.346H13.81l2.505-4.423h20.108l2.571-4.538H23.878l2.55-4.5h15.155L44.05 4.53h-10L36.616 0l15.278.038ZM79.634 0c2.398 0 4.34 1.98 4.34 4.423s-1.942 4.423-4.34 4.423c-2.396 0-4.339-1.98-4.339-4.423S77.238 0 79.635 0Zm-.64 3.73 2.15-.845-2.302 4.384 1.246-.192-1.555.824c.347.114.718.176 1.102.176 1.98 0 3.585-1.636 3.585-3.654 0-1.808-1.29-3.31-2.982-3.602l-1.245 2.91Zm.64-2.96c-1.979 0-3.584 1.635-3.584 3.653 0 1.483.867 2.76 2.112 3.332l-.188-1.563.49 1 1.36-3.115-2.114.73L80.065.796a3.555 3.555 0 0 0-.43-.026Z" fill="#203B7A"/></svg>