<svg width="100" height="82" fill="none" xmlns="http://www.w3.org/2000/svg"><path d="M50 82 39.607 64H0V0h100v64H60.393L50 82Z" fill="#203B7A"/><g clip-path="url(#a)"><path d="M37.157 21.515H27.031L15.711 41.5h50.548L63.71 46H8l16.427-29h15.17l-2.44 4.515ZM67.408 39.42h-5.207L72.35 21.5h-4.963l-10.13 17.885h-5.095l12.642-22.348h15.283L67.408 39.42Zm-7.514-22.382L47.257 39.346H21.81l2.505-4.423h20.108l2.571-4.538H31.878l2.55-4.5h15.155l2.467-4.355h-10L44.616 17l15.278.038ZM87.634 17c2.398 0 4.34 1.98 4.34 4.423s-1.942 4.423-4.34 4.423c-2.396 0-4.339-1.98-4.339-4.423S85.238 17 87.635 17Zm-.64 3.73 2.15-.845-2.302 4.384 1.246-.192-1.555.824c.347.114.718.176 1.102.176 1.98 0 3.585-1.636 3.585-3.654 0-1.808-1.29-3.31-2.982-3.602l-1.245 2.91Zm.64-2.96c-1.979 0-3.584 1.635-3.584 3.653 0 1.483.867 2.76 2.112 3.332l-.188-1.563.49 1 1.36-3.115-2.114.73 2.355-4.012a3.552 3.552 0 0 0-.43-.026Z" fill="#F6F6F6"/></g><defs><clipPath id="a"><path fill="#fff" transform="translate(8 17)" d="M0 0h84v29H0z"/></clipPath></defs></svg>