<svg width="106" height="113" fill="none" xmlns="http://www.w3.org/2000/svg"><path fill-rule="evenodd" clip-rule="evenodd" d="M43.373 98.875 32.503 87.97V66.159L23.5 57.125A43.697 43.697 0 0 1 10.766 26.28V11.632h14.598c11.531 0 22.59 4.596 30.743 12.777l9.004 9.034H86.85l10.869 10.905-54.346 54.527Zm-2.717-49.074c-4.502 0-8.152-3.662-8.152-8.179s3.65-8.179 8.152-8.179c4.502 0 8.152 3.662 8.152 8.179s-3.65 8.179-8.152 8.179Z" fill="#F6F6F6" fill-opacity=".05"/><path d="m70.94 86.638 14.582-14.63L97.72 93.421l-5.435 5.453L70.94 86.638Z" fill="#F6F6F6" fill-opacity=".05"/></svg>