<svg viewBox="0 0 30 30" xmlns="http://www.w3.org/2000/svg"><style><![CDATA[:root>svg{display:none}:root>svg:target{display:block}]]></style><svg fill="none" viewBox="0 0 9 6" id="arrow" xmlns="http://www.w3.org/2000/svg"><path d="m8 1.5-3.5 3-3.5-3"/></svg><svg viewBox="0 0 13 12" id="arrow-right" xmlns="http://www.w3.org/2000/svg"><path d="M12.53 6.054a.75.75 0 0 0 0-1.06L7.757.22a.75.75 0 1 0-1.06 1.06l4.242 4.243-4.242 4.243a.75.75 0 1 0 1.06 1.06l4.773-4.772ZM0 5.524v.75h12v-1.5H0v.75Z"/></svg><svg viewBox="0 0 30 30" id="close" xmlns="http://www.w3.org/2000/svg"><path d="M0 28.284 28.284 0l.707.707L.707 28.99z"/><path d="m1 .284 28.284 28.284-.707.707L.293.991z"/></svg><svg viewBox="0 0 16 14" id="gmb" xmlns="http://www.w3.org/2000/svg"><path d="M0 0h16v2H0zm0 6h16v2H0zm0 6h16v2H0z"/></svg><svg viewBox="0 0 25 15" id="long-arrow" xmlns="http://www.w3.org/2000/svg"><path d="M24.707 8.07a1 1 0 0 0 0-1.414L18.343.292a1 1 0 1 0-1.414 1.414l5.657 5.657-5.657 5.657a1 1 0 0 0 1.414 1.414l6.364-6.364ZM0 7.363v1h24v-2H0v1Z"/></svg><svg viewBox="0 0 8 8" id="plus" xmlns="http://www.w3.org/2000/svg"><path d="M4 0v8M0 4h8"/></svg><svg fill="none" viewBox="0 0 30 30" id="search" xmlns="http://www.w3.org/2000/svg"><circle cx="12.5" cy="13.5" r="9.5"/><path d="m20 20 6 6"/></svg><svg viewBox="0 0 14 12" id="tringle" xmlns="http://www.w3.org/2000/svg"><path d="m6.928 0 6.928 12H0L6.928 0Z"/></svg></svg>