<svg width="395" height="394" viewBox="0 0 395 394" fill="none" xmlns="http://www.w3.org/2000/svg">
<g clip-path="url(#clip0_5777_53176)">
<path d="M118.294 42.2869C103.981 49.4607 99.2106 68.591 108.752 78.1562C120.679 56.6346 139.762 63.8085 168.387 87.7213C187.47 104.46 213.71 90.1126 213.71 90.1126C213.71 90.1126 218.481 118.808 254.261 123.591C294.813 128.373 309.126 104.46 309.126 104.46C309.126 104.46 318.667 128.373 354.448 114.025C380.688 104.46 371.146 87.7213 371.146 87.7213C371.146 87.7213 395 87.7213 395 70.9823C395 49.4607 368.761 51.852 368.761 51.852C368.761 51.852 373.531 27.9392 347.292 25.5479C323.438 23.1566 316.282 37.5043 316.282 37.5043C316.282 37.5043 309.126 11.2002 273.345 11.2002C239.949 11.2002 228.022 42.2869 228.022 42.2869C228.022 42.2869 218.481 27.9392 189.856 27.9392C168.387 27.9392 158.846 44.6782 158.846 44.6782C158.846 44.6782 132.606 32.7218 118.294 42.2869Z" fill="#313131" fill-opacity="0.04"/>
<path d="M299.796 300.172V250.169L204.592 300.172V250.169H147.47L133.189 83.4941H85.5875L71.3069 250.169H14.1846V393.034H395V250.169L299.796 300.172ZM156.99 345.412H61.7865V297.791H156.99V345.412Z" fill="#313131" fill-opacity="0.04"/>
</g>
<defs>
<clipPath id="clip0_5777_53176">
<rect width="395" height="394" fill="white"/>
</clipPath>
</defs>
</svg>
