<svg width="526" height="526" viewBox="0 0 526 526" fill="none" xmlns="http://www.w3.org/2000/svg">
<path d="M263 0C408.251 0 526 117.749 526 263C526 408.251 408.251 526 263 526C117.749 526 0 408.251 0 263C0 117.749 117.749 0 263 0ZM224.122 221.835L354.478 171.522L214.974 432.235L290.443 420.8L196.231 469.787C217.27 476.574 239.703 480.261 263 480.261C382.99 480.261 480.261 382.99 480.261 263C480.261 155.463 402.129 66.1868 299.538 48.8123L224.122 221.835ZM263 45.7391C143.01 45.7391 45.7391 143.01 45.7391 263C45.7391 351.18 98.2733 427.088 173.751 461.137L162.374 368.2L192.104 427.661L274.435 242.417L146.365 285.87L289.063 47.2892C280.518 46.2674 271.82 45.7391 263 45.7391Z" fill="#313131" fill-opacity="0.04"/>
</svg>
