<svg width="390" height="390" viewBox="0 0 390 390" fill="none" xmlns="http://www.w3.org/2000/svg">
<path d="M276.25 227.5H243.75V211.25C243.75 206.94 242.038 202.807 238.99 199.76C235.943 196.712 231.81 195 227.5 195C223.19 195 219.057 196.712 216.01 199.76C212.962 202.807 211.25 206.94 211.25 211.25V227.5H178.75V211.25C178.75 206.94 177.038 202.807 173.99 199.76C170.943 196.712 166.81 195 162.5 195C158.19 195 154.057 196.712 151.01 199.76C147.962 202.807 146.25 206.94 146.25 211.25V227.5H113.75C105.13 227.5 96.864 230.924 90.769 237.019C84.6741 243.114 81.25 251.38 81.25 260V341.25C81.25 345.56 82.9621 349.693 86.0095 352.74C89.057 355.788 93.1902 357.5 97.5 357.5H292.5C296.81 357.5 300.943 355.788 303.991 352.74C307.038 349.693 308.75 345.56 308.75 341.25V260C308.75 251.38 305.326 243.114 299.231 237.019C293.136 230.924 284.87 227.5 276.25 227.5Z" fill="#EEEEEE"/>
<path d="M243.75 113.75C244.051 120.231 242.996 126.705 240.652 132.756C238.309 138.806 234.729 144.302 230.14 148.89C225.552 153.478 220.057 157.059 214.006 159.402C207.955 161.746 201.482 162.801 195 162.5C188.537 162.727 182.096 161.621 176.079 159.251C170.062 156.882 164.596 153.299 160.024 148.726C155.451 144.153 151.868 138.688 149.498 132.671C147.129 126.653 146.023 120.213 146.25 113.75C146.368 103.532 149.11 93.5157 154.212 84.6622C160.314 73.7152 163.187 61.2632 162.5 48.7497C162.508 45.9796 163.225 43.2577 164.581 40.8424C165.937 38.4271 167.889 36.3986 170.249 34.9496C172.61 33.5005 175.302 32.679 178.07 32.5631C180.837 32.4471 183.589 33.0406 186.062 34.2872C202.073 40.9209 215.936 51.855 226.117 65.8794C236.299 79.9039 242.401 96.4718 243.75 113.75ZM341.25 341.25C341.25 336.94 339.538 332.807 336.491 329.759C333.443 326.712 329.31 325 325 325H65C60.6902 325 56.557 326.712 53.5095 329.759C50.462 332.807 48.75 336.94 48.75 341.25C48.75 345.559 50.462 349.693 53.5095 352.74C56.557 355.788 60.6902 357.5 65 357.5H325C329.31 357.5 333.443 355.788 336.491 352.74C339.538 349.693 341.25 345.559 341.25 341.25Z" fill="#EEEEEE"/>
</svg>
