<svg width="100" height="82" viewBox="0 0 100 82" fill="none" xmlns="http://www.w3.org/2000/svg">
<path d="M50 82L39.6074 64H0V0H100V64H60.3926L50 82Z" fill="#203B7A"/>
<g clip-path="url(#clip0_5777_55076)">
<path d="M37.1571 21.5148H27.031L15.7103 41.5H66.2594L63.7103 46H8L24.4272 17H39.5971L37.1571 21.5148ZM67.4084 39.4201H62.2008L72.3518 21.5H67.3884L57.2574 39.3846H52.1631L64.8046 17.0367H80.0876L67.4084 39.4201ZM59.8938 17.0385L47.2574 39.3462H21.8086L24.314 34.9231H44.4225L46.9933 30.3846H31.8782L34.4272 25.8846H49.5832L52.0499 21.53H42.0499L44.6159 17L59.8938 17.0385ZM87.6347 17C90.0317 17 91.9743 18.9803 91.9743 21.4231C91.9743 23.8659 90.0317 25.8462 87.6347 25.8462C85.2377 25.8462 83.2952 23.8659 83.2952 21.4231C83.2952 18.9803 85.2377 17 87.6347 17ZM86.9932 20.7308L89.1442 19.8846L86.8423 24.2692L88.0875 24.0769L86.5328 24.9008C86.88 25.0149 87.2506 25.0769 87.6347 25.0769C89.6143 25.0769 91.2196 23.441 91.2196 21.4231C91.2196 19.6145 89.9306 18.1131 88.2377 17.8209L86.9932 20.7308ZM87.6347 17.7692C85.6551 17.7692 84.0498 19.4051 84.0498 21.4231C84.0498 22.9061 84.917 24.1827 86.1623 24.7553L85.9743 23.1923L86.4649 24.1923L87.8234 21.0769L85.7102 21.8077L88.0649 17.7953C87.9238 17.7781 87.7804 17.7692 87.6347 17.7692Z" fill="#F6F6F6"/>
</g>
<defs>
<clipPath id="clip0_5777_55076">
<rect width="84" height="29" fill="white" transform="translate(8 17)"/>
</clipPath>
</defs>
</svg>
