<svg width="106" height="113" viewBox="0 0 106 113" fill="none" xmlns="http://www.w3.org/2000/svg">
<path fill-rule="evenodd" clip-rule="evenodd" d="M43.373 98.875L32.5039 87.9696V66.159L23.4994 57.1247C15.3464 48.9441 10.7656 37.8488 10.7656 26.2798V11.6323H25.3645C36.895 11.6323 47.9536 16.2281 56.1071 24.4087L65.1113 33.443H86.8496L97.7188 44.3483L43.373 98.875ZM40.6558 49.801C36.1538 49.801 32.5039 46.1391 32.5039 41.622C32.5039 37.1048 36.1538 33.443 40.6558 33.443C45.1579 33.443 48.8076 37.1048 48.8076 41.622C48.8076 46.1391 45.1579 49.801 40.6558 49.801Z" fill="#F6F6F6" fill-opacity="0.05"/>
<path d="M70.9404 86.6379L85.5223 72.0073L97.7188 93.4221L92.2842 98.8748L70.9404 86.6379Z" fill="#F6F6F6" fill-opacity="0.05"/>
</svg>
