<svg width="32" height="32" viewBox="0 0 32 32" fill="none" xmlns="http://www.w3.org/2000/svg">
<path d="M16 32C24.8366 32 32 24.8366 32 16C32 7.16344 24.8366 0 16 0C7.16344 0 0 7.16344 0 16C0 24.8366 7.16344 32 16 32ZM23.7072 8.2929C24.0976 8.68342 24.0976 9.31658 23.7072 9.7071L15.7071 17.7072C15.3166 18.0976 14.6834 18.0976 14.2929 17.7072L10.2929 13.7071C9.90236 13.3166 9.90236 12.6834 10.2929 12.2929C10.6834 11.9024 11.3166 11.9024 11.7071 12.2929L15 15.5858L22.2928 8.2929C22.6834 7.90236 23.3166 7.90236 23.7072 8.2929ZM11 22H20.9966C21.5488 22 21.9966 22.4478 21.9966 23C21.9966 23.5522 21.5488 24 20.9966 24H11C10.4477 24 10 23.5522 10 23C10 22.4478 10.4477 22 11 22Z" fill="#203B7A"/>
</svg>
