<?xml version="1.0" encoding="utf-8"?><svg viewBox="0 0 30 30" xmlns="http://www.w3.org/2000/svg" xmlns:xlink="http://www.w3.org/1999/xlink"><style>:root>svg{display:none}:root>svg:target{display:block}</style><svg fill="none" viewBox="0 0 9 6" id="arrow" xmlns="http://www.w3.org/2000/svg"><path d="m8 1.5-3.5 3-3.5-3"/></svg><svg viewBox="0 0 13 12" id="arrow-right" xmlns="http://www.w3.org/2000/svg"><path d="M12.53 6.054a.75.75 0 0 0 0-1.06L7.757.22a.75.75 0 1 0-1.06 1.06l4.242 4.243-4.242 4.243a.75.75 0 1 0 1.06 1.06l4.773-4.772ZM0 5.524v.75h12v-1.5H0v.75Z"/></svg><svg viewBox="0 0 30 30" id="close" xmlns="http://www.w3.org/2000/svg"><path d="M0 28.284 28.284 0l.707.707L.707 28.99z"/><path d="m1 .284 28.284 28.284-.707.707L.293.991z"/></svg><svg viewBox="0 0 16 14" id="gmb" xmlns="http://www.w3.org/2000/svg"><path d="M0 0h16v2H0zM0 6h16v2H0zM0 12h16v2H0z"/></svg><svg viewBox="0 0 14 16" id="loc" xmlns="http://www.w3.org/2000/svg"><path d="M13.521 5.227C12.717 1.615 9.595 0 6.86 0H6.85C4.123 0 1.008 1.615.196 5.219c-.912 4.025 1.53 7.434 3.741 9.587A4.18 4.18 0 0 0 6.859 16a4.15 4.15 0 0 0 2.913-1.194c2.211-2.153 4.653-5.554 3.75-9.58Zm-4.127.647-3.092 3.12a.57.57 0 0 1-.82 0l-1.159-1.17a.593.593 0 0 1 0-.826.58.58 0 0 1 .82 0l.75.756 2.681-2.707a.58.58 0 0 1 .82 0c.224.227.224.601 0 .827Z"/></svg><svg viewBox="0 0 25 15" id="long-arrow" xmlns="http://www.w3.org/2000/svg"><path d="M24.707 8.07a1 1 0 0 0 0-1.414L18.343.292a1 1 0 1 0-1.414 1.414l5.657 5.657-5.657 5.657a1 1 0 0 0 1.414 1.414l6.364-6.364ZM0 7.363v1h24v-2H0v1Z"/></svg><svg viewBox="0 0 8 8" id="plus" xmlns="http://www.w3.org/2000/svg"><path d="M4 0v8M0 4h8"/></svg><svg fill="none" viewBox="0 0 30 30" id="search" xmlns="http://www.w3.org/2000/svg"><circle cx="12.5" cy="13.5" r="9.5"/><path d="m20 20 6 6"/></svg></svg>